<svg width="152" height="152" viewBox="0 0 152 152" fill="none" xmlns="http://www.w3.org/2000/svg">
<path d="M111.57 97.3312C114.217 92.9699 117.84 87.006 120.662 82.3645C123.34 77.955 123.335 72.4115 120.649 68.0108C113.32 55.9998 98.8677 32.1529 93.2547 22.8874C92.2009 21.1446 89.6884 21.1446 88.6303 22.8874C85.9044 27.3756 81.367 34.8678 77.9357 40.5076C75.4492 44.593 71.0338 47.0846 66.27 47.0846H48.5429C43.7791 47.0846 39.3593 49.5761 36.8729 53.6659C30.8202 63.632 22.8384 76.7946 16.0236 88.0131C10.6546 96.8495 10.6546 107.963 16.0236 116.799C16.1064 116.935 16.1891 117.071 16.2718 117.206C21.2577 125.417 30.1365 130.426 39.7077 130.426H50.7419C55.5057 130.426 59.9299 127.93 62.4119 123.84C64.968 119.632 68.2861 114.168 70.9336 109.806C73.4157 105.717 77.8355 103.225 82.6037 103.225H101.141C103.253 103.225 104.555 105.55 103.457 107.363C100.048 112.99 94.9791 121.323 91.9614 126.275C90.8554 128.092 92.1574 130.422 94.2737 130.422H107.894C118.228 130.422 127.816 125.014 133.207 116.147C135.55 112.289 137.906 108.418 139.604 105.62C140.706 103.803 139.408 101.478 137.292 101.478C131.2 101.478 120.801 101.478 113.886 101.478C111.77 101.478 110.472 99.1484 111.574 97.3355L111.57 97.3312ZM47.7678 101.474C45.6515 101.474 44.3539 99.1484 45.4556 97.3312C49.8928 90.023 58.6627 75.5949 58.9327 75.1439C59.1853 74.7322 67.3456 61.2894 72.1007 53.4557C73.1588 51.7173 75.667 51.7173 76.7251 53.4557C79.2725 57.6506 82.7996 63.4569 85.5691 68.0108C88.3385 72.5647 88.2427 77.9463 85.5691 82.347C83.2438 86.174 80.3742 90.8987 77.9487 94.8878C75.4667 98.9776 71.0425 101.469 66.2787 101.469H47.7634L47.7678 101.474Z" fill="#0D0D0F"/>
</svg>
